<svg width="72" height="72" viewBox="0 0 72 72" fill="none" xmlns="http://www.w3.org/2000/svg">
<path d="M62.9334 65.4599H62.4825L60.3838 61.7686C60.1817 61.4131 59.8044 61.1936 59.3956 61.1936H56.2312V47.7559V33.1812V19.743H57.5019V24.8286C57.5019 25.4565 58.011 25.9654 58.6387 25.9654H62.9333C63.5613 25.9654 64.0701 25.4566 64.0701 24.8286V19.5199C65.1825 19.0688 65.9698 17.9786 65.9698 16.7062V16.2393C65.9698 14.565 64.6076 13.2026 62.9332 13.2026H61.2523L52.7734 4.83921C52.6934 4.76017 52.6042 4.69605 52.5099 4.64571V3.03653C52.51 1.36224 51.1476 0 49.4732 0H49.0063C47.4253 0 46.1239 1.21515 45.9837 2.76062L11.9446 13.2029H9.28354C7.60925 13.2029 6.24701 14.5651 6.24701 16.2396V16.7065C6.24701 18.2314 7.37821 19.4938 8.84493 19.7077V22.929C8.84493 24.3729 9.85884 25.5825 11.2115 25.8887V39.1195C10.1875 39.5613 9.46832 40.5803 9.46832 41.7647C9.46832 42.2822 9.60754 42.767 9.84745 43.1871L7.25263 46.6191H7.16685C6.53895 46.6191 6.03003 47.1278 6.03003 47.7559V53.9784V57.3426C6.03003 57.9706 6.53909 58.4794 7.16685 58.4794H17.5302C18.1581 58.4794 18.6671 57.9706 18.6671 57.3426V53.9784V47.7559C18.6671 47.1278 18.158 46.6191 17.5302 46.6191H17.4445L14.8495 43.1871C15.0894 42.7669 15.2286 42.2822 15.2286 41.7647C15.2286 40.5802 14.5095 39.5613 13.4854 39.1195V25.7428C14.485 25.3375 15.2196 24.4154 15.3588 23.3091H31.8853V24.8287C31.8853 25.4567 32.3944 25.9655 33.0221 25.9655H42.2487V33.181V47.7557V61.1935H39.0843C38.6755 61.1935 38.298 61.413 38.0959 61.7686L35.9976 65.4599H35.5466C33.8723 65.4599 32.5101 66.8222 32.5101 68.4965V68.9633C32.5101 70.6376 33.8723 71.9999 35.5466 71.9999H62.9336C64.6079 71.9999 65.9701 70.6376 65.9701 68.9633V68.4965C65.9701 66.8222 64.6079 65.4599 62.9334 65.4599ZM61.7965 23.6919H59.7757V19.743H61.7965V23.6919ZM52.51 7.77294L58.0146 13.2028H52.51V7.77294ZM48.2434 3.03653C48.2434 2.61592 48.5857 2.27363 49.0063 2.27363H49.4732C49.8938 2.27363 50.2361 2.61592 50.2361 3.03653V13.2026H48.2434V3.03653ZM11.1186 22.929V19.743H13.1112V22.929C13.1112 23.3496 12.7689 23.6919 12.3483 23.6919H11.8815C11.4608 23.6919 11.1186 23.3496 11.1186 22.929ZM12.9547 41.7645C12.9547 41.9636 12.857 42.139 12.7083 42.2497C12.6939 42.2606 12.6767 42.2716 12.6586 42.2827C12.6476 42.2892 12.6363 42.2951 12.6249 42.301C12.6074 42.3103 12.5896 42.3197 12.5695 42.3277C12.552 42.3348 12.5333 42.3394 12.515 42.3447C12.4988 42.3495 12.4839 42.3556 12.4663 42.3589C12.4281 42.3665 12.3887 42.3709 12.3482 42.3709C12.3077 42.3709 12.2685 42.3665 12.2301 42.3589C12.2126 42.3554 12.1977 42.3495 12.1816 42.3447C12.1633 42.3394 12.1446 42.3348 12.127 42.3277C12.1069 42.3196 12.0892 42.3103 12.0716 42.3009C12.0602 42.295 12.0489 42.2892 12.0381 42.2827C12.0201 42.2716 12.003 42.2606 11.9883 42.2497C11.8398 42.139 11.742 41.9636 11.742 41.7645C11.742 41.4301 12.0139 41.1581 12.3483 41.1581C12.6827 41.1583 12.9547 41.4301 12.9547 41.7645ZM8.30352 56.2056V55.1152H16.3931V56.2056H8.30352ZM16.3931 48.8925V52.8413H8.30352V48.8925H16.3931ZM14.5937 46.6191H10.103L11.6588 44.5616C11.6868 44.5686 11.7154 44.5737 11.7438 44.5797C11.7581 44.5828 11.7725 44.586 11.787 44.589C11.8674 44.6049 11.9487 44.6174 12.0308 44.6262C12.0516 44.6285 12.0726 44.63 12.0935 44.6319C12.1688 44.6383 12.2441 44.6427 12.3198 44.6434C12.3294 44.6435 12.3388 44.645 12.3483 44.645C12.3579 44.645 12.3673 44.6435 12.3769 44.6434C12.4525 44.6427 12.5281 44.6383 12.6031 44.6319C12.6241 44.63 12.6452 44.6285 12.6659 44.6262C12.7479 44.6172 12.8293 44.6047 12.9097 44.589C12.9242 44.586 12.9385 44.5829 12.9529 44.5797C12.9813 44.5737 13.0097 44.5685 13.0378 44.5616L14.5937 46.6191ZM31.885 21.0353H15.385V19.743H31.885V21.0353ZM42.2484 23.6919H34.1587V19.743H42.2484V23.6919ZM33.0217 17.4692H14.2482H9.98175H9.28368C8.86293 17.4692 8.52065 17.1269 8.52065 16.7063V16.2394C8.52065 15.8188 8.86293 15.4765 9.28354 15.4765H12.111C12.1122 15.4765 12.1133 15.4768 12.1146 15.4768C12.1159 15.4768 12.1171 15.4765 12.1184 15.4765H38.6275C39.2555 15.4765 39.7643 14.9676 39.7643 14.3397C39.7643 13.7118 39.2555 13.2029 38.6275 13.2029H19.6969L45.9698 5.14296V13.2029H42.619C41.9909 13.2029 41.4821 13.7118 41.4821 14.3397C41.4821 14.9676 41.9909 15.4765 42.619 15.4765H47.1066H51.3729H62.9333C63.3539 15.4765 63.6962 15.8188 63.6962 16.2394V16.7063C63.6962 17.1269 63.3539 17.4692 62.9333 17.4692H58.6387H55.0943H55.0809C55.0804 17.4692 55.0798 17.4692 55.0792 17.4692H43.385H33.0217ZM45.7566 46.6191L49.2398 42.2836L52.7228 46.6191H45.7566ZM52.7229 48.8927L49.2399 53.2282L45.7569 48.8927H52.7229ZM44.5221 44.5256V36.4112L47.7816 40.4684L44.5221 44.5256ZM45.7567 34.318H52.7229L49.2399 38.6535L45.7567 34.318ZM45.7567 32.0442L49.2399 27.7087L52.723 32.0442H45.7567ZM45.7567 19.743H52.7229L49.2399 24.0785L45.7567 19.743ZM47.7816 25.8937L44.5221 29.951V24.8287V21.8363L47.7816 25.8937ZM44.5221 50.986L47.7816 55.0432L44.5221 59.1004V50.986ZM49.2398 56.8584L52.7228 61.1938H45.7567L49.2398 56.8584ZM50.6982 55.0432L53.9577 50.986V59.1004L50.6982 55.0432ZM50.6982 40.4684L53.9577 36.4112V44.5256L50.6982 40.4684ZM50.6982 25.8935L53.9577 21.8362V29.9507L50.6982 25.8935ZM63.6963 68.9635C63.6963 69.3841 63.3541 69.7264 62.9334 69.7264H35.5463C35.1257 69.7264 34.7835 69.3841 34.7835 68.9635V68.4966C34.7835 68.076 35.1257 67.7337 35.5463 67.7337H36.6339C36.636 67.7337 36.6382 67.7337 36.6403 67.7337H53.5831C54.2112 67.7337 54.7199 67.2249 54.7199 66.5969C54.7199 65.9688 54.2112 65.4601 53.5831 65.4601H38.6127L39.7454 63.4674H43.3852H55.0944H58.7341L59.8668 65.4601H57.6756C57.0476 65.4601 56.5388 65.9688 56.5388 66.5969C56.5388 67.2249 57.0476 67.7337 57.6756 67.7337H61.8197C61.8204 67.7337 61.8214 67.7338 61.8221 67.7338C61.8228 67.7338 61.8238 67.7337 61.8245 67.7337H62.9333C63.3539 67.7337 63.6962 68.076 63.6962 68.4966V68.9635H63.6963Z" fill="black"/>
</svg>
